<?xml version="1.0" encoding="utf-8"?>
<!-- Generator: Adobe Illustrator 23.0.1, SVG Export Plug-In . SVG Version: 6.00 Build 0)  -->
<svg version="1.1" id="Layer_1" xmlns="http://www.w3.org/2000/svg" xmlns:xlink="http://www.w3.org/1999/xlink" x="0px" y="0px"
	 viewBox="0 0 612 792" style="enable-background:new 0 0 612 792;" xml:space="preserve">
<style type="text/css">
	.st0{fill:#FFE501;}
	.st1{fill:#09559B;}
	.st2{fill:#FFFFFF;}
	.st3{fill:none;}
</style>
<g>
	<g>
		<path class="st0" d="M495.05,327.6c0,111.36-90.28,201.64-201.64,201.64c-111.37,0-201.64-90.28-201.64-201.64
			c0-111.37,90.28-201.64,201.64-201.64C404.77,125.95,495.05,216.23,495.05,327.6z"/>
	</g>
	<g>
		<rect x="91.76" y="325.78" class="st1" width="403.29" height="3.63"/>
	</g>
	<g>
		<path class="st1" d="M293.41,531.05c-112.19,0-203.46-91.27-203.46-203.45c0-112.19,91.27-203.46,203.46-203.46
			c112.18,0,203.46,91.27,203.46,203.46C496.86,439.78,405.59,531.05,293.41,531.05z M293.41,127.77
			c-110.19,0-199.83,89.64-199.83,199.83c0,110.18,89.64,199.82,199.83,199.82c110.19,0,199.83-89.64,199.83-199.82
			C493.24,217.41,403.6,127.77,293.41,127.77z"/>
	</g>
	<g>
		<path class="st1" d="M293.32,531.05c-1.38-0.07-137.25-8.85-137.25-202.98c0-194.14,135.87-203.85,137.24-203.92l0.53,3.57
			c-0.59,0.15-59.62,17.33-59.62,200.35c0,182.97,59.01,199.27,59.61,199.41L293.32,531.05z M283.06,129.41
			c-31.51,6.72-123.36,39.95-123.36,198.66c0,158.65,91.66,191.26,123.25,197.78c-17.7-12.75-52.37-55.86-52.37-197.78
			C230.59,185.79,265.41,142.31,283.06,129.41z"/>
	</g>
	<g>
		<path class="st1" d="M294.88,531.05l-0.5-3.58c0.6-0.14,59.63-16.43,59.63-199.41c0-183.02-59.05-200.2-59.65-200.35l0.54-3.57
			c1.37,0.07,137.24,9.79,137.24,203.92C432.13,522.2,296.25,530.98,294.88,531.05z M305.14,129.41
			c17.66,12.91,52.49,56.4,52.49,198.66c0,141.86-34.66,184.99-52.36,197.76c31.62-6.56,123.23-39.29,123.23-197.76
			C428.5,169.36,336.65,136.13,305.14,129.41z"/>
	</g>
	<g>
		<path class="st1" d="M292.94,450.01c-137.74,0-174.58-23.5-176.09-24.51l2.01-3.02c0.36,0.24,37.85,23.9,174.08,23.9
			c136.58,0,181.02-32.81,181.45-33.14l2.21,2.87C474.79,417.5,430.74,450.01,292.94,450.01z"/>
	</g>
	<g>
		<path class="st1" d="M474.4,247.52c-0.44-0.33-45.17-33.14-181.46-33.14c-136.23,0-173.72,23.65-174.08,23.89l-2.01-3.02
			c1.51-1,38.35-24.5,176.09-24.5c137.81,0,181.85,32.5,183.66,33.88L474.4,247.52z"/>
	</g>
	<g>
		<polygon class="st2" points="78.72,272.17 139.26,227.47 177.46,246.1 342.3,296.4 348.83,310.36 347.89,356.93 266.86,357.86 
			77.8,322.47 		"/>
	</g>
	<g>
		<path class="st1" d="M34.94,307.57c0,0-1.86-14.9-0.93-26.08c0.93-11.18,6.52-17.7,11.18-14.9c4.67,2.79-3.72,9.31-3.72,9.31
			s-2.79,10.24,5.59,2.8c8.36-7.46,8.36-2.79,15.82-6.53c7.46-3.72,54.96-34.46,73.58-65.2c0,0,102.45,45.65,203.04,45.65
			c0,0,24.22,35.38,37.27,40.97v6.53c0,0-77.31,9.31-152.76-10.25c0,0-49.36-10.25-77.3-55.89c0,0-40.05,34.46-45.64,35.39
			c0,0,0.94,8.38,5.59,3.73c4.66-4.66,6.52-5.59,13.04-4.66c0,0-7.46,9.31-5.58,15.83c0,0,11.17-1.86,11.17,8.38
			c0,7.46-4.67,6.52-4.67,6.52s-4.65,4.66,10.26,3.72l1.85,15.84L34.94,307.57z"/>
	</g>
	<g>
		<path class="st1" d="M13.1,329.85c0,0-11.19,94.3,62.85,136.22l10.48,0.7c0,0,49.6,18.17,200.49-20.95
			c0,0,112.45-2.1,118.04-65.67l0.7-46.8l-11.87-2.1c0,0,11.87-10.47,11.87-17.46c0-6.98-4.19-7.68-4.89-3.49
			c-0.7,4.19-10.49,8.39-10.49,0c0-8.38,0-8.38,0-8.38s-4.18,0-5.57,2.8c-1.4,2.79-7.69,1.4-8.38,9.78
			c-0.71,8.39-8.38,0.69-8.38,0.69s2.8-8.37-11.18-3.48l-2.79,4.19l-6.99-16.3l-8.38,0.24c0,0-1.4,4.18,1.4,4.88
			c2.79,0.7,4.88,2.79,5.58,11.18c0.7,8.38,0.7,18.16,0.7,18.16s-7.68-1.86-6.99-6.52c0.71-4.66-0.69-8.16-6.28-8.16
			c-5.58,0-6.98,4.2-5.58,10.48l3.48,18.17c0,0-13.27-2.09-30.03,0c-16.78,2.09-17.48,0-51.69-5.59
			c-34.24-5.58-128.13-34.52-192.09-30.04C17.28,315.17,13.1,329.85,13.1,329.85z"/>
	</g>
	<g>
		<g>
			<path class="st1" d="M47.42,130.26l17.31-20.68l84.07,39.64l-16.72,19.96L122,163.57l-11.73,14.03l7.34,8.86l-16.71,19.95
				L47.42,130.26z M102.94,153.04l-9.12-4.96c-4.27-2.34-10-5.29-16.89-10.58l-0.32,0.36c6.42,5.86,10.34,10.98,13.39,14.77
				l6.48,8.14L102.94,153.04z"/>
		</g>
		<g>
			<path class="st1" d="M108.64,103.24l17.83-13.64l5.43,7.1c-1.37-8,0.24-13.97,5.11-17.69c0.45-0.34,0.9-0.68,1.43-0.93
				l18.7,24.48c-3.02,0.09-5.34,0.61-6.84,1.75c-4.65,3.55-4.68,9.11,0.05,15.3l15.27,19.97l-18.43,14.09L108.64,103.24z"/>
		</g>
		<g>
			<path class="st1" d="M185.79,80.45c-4.01,2.09-5.12,6.65-2.57,11.56c2.45,4.68,6.8,6.52,10.57,4.55
				c2.42-1.26,4.02-3.94,5.06-8.03l11.7,22.4c-2.67,4.66-5.75,8.12-9.85,10.26c-13.03,6.81-29.23-1.18-38.09-18.11
				c-8.99-17.17-6.34-35.29,6.62-42.06c3.85-2.02,8.36-2.96,13.59-3.13L194.7,80.6C191.12,79.22,188.3,79.13,185.79,80.45z"/>
		</g>
		<g>
			<path class="st1" d="M241.78,93.39c-2.19,8.96-5.85,14.04-11.75,15.7c-10.18,2.85-22.02-7.27-27.59-27.13
				c-5.74-20.46-1.49-35.24,9.24-38.25c5.44-1.53,10.77-0.02,16.98,6.07l-2.27-8.11l21.34-5.99l17.16,61.14l-20.53,5.75
				L241.78,93.39z M231.73,82.36c3.45-0.96,4.78-4.98,3.27-10.32c-1.5-5.33-4.74-8.2-8.2-7.23c-3.36,0.94-4.74,5.11-3.24,10.44
				C225.05,80.59,228.37,83.31,231.73,82.36z"/>
		</g>
		<g>
			<path class="st1" d="M430.82,69.08l19.11,11.75l-4.67,7.6c6.96-4.13,13.11-4.78,18.34-1.56c0.48,0.29,0.96,0.58,1.38,0.99
				l-16.12,26.24c-1.17-2.78-2.49-4.77-4.1-5.75c-4.99-3.06-10.18-1.09-14.26,5.55l-13.17,21.43l-19.77-12.14L430.82,69.08z"/>
		</g>
		<g>
			<path class="st1" d="M465.14,138.61c-0.26,0.26-0.51,0.55-0.69,0.73c-4.4,4.68-5.33,8.12-2.71,10.58c1.5,1.42,3.8,1.33,6.8-0.34
				l14.29,16.06c-11.68,7.3-24.23,6.72-34.04-2.53c-11.8-11.14-9.72-30.25,3.05-43.79c12.77-13.54,31.65-16.81,43.52-5.62
				c11.88,11.19,10.39,29.83-3.94,45.01c-0.78,0.82-1.55,1.65-2.39,2.41L465.14,138.61z M482.39,135.85
				c3.24-3.85,3.63-6.59,1.23-8.87c-2.12-2-5.12-1.56-8.83,1.69L482.39,135.85z"/>
		</g>
		<g>
			<path class="st1" d="M491.01,169c-0.89,7.07-0.31,11.84,1.38,14.24c1.41,2.01,3.29,2.3,5.14,1c2.48-1.72,1.06-3.73-0.23-7.55
				c-2.79-8.62-0.45-15.33,7.38-20.81c10.41-7.28,23.53-5.87,31.47,5.5c3.74,5.33,5.93,11.52,6.33,17.79l-18.91,6.32
				c0.66-5.63,0.3-9.65-1.16-11.73c-1.24-1.78-3.13-2.07-4.68-0.99c-2.26,1.59-0.97,3.89,0.57,8.69c2.8,9.08,1.04,15.74-6.7,21.15
				c-11.04,7.71-24.82,6.66-33.23-5.4c-4.51-6.42-6.7-13.72-6.93-21.96L491.01,169z"/>
		</g>
		<g>
			<path class="st1" d="M542.12,223.6c-1.93-4.1-6.43-5.43-11.45-3.09c-4.78,2.25-6.8,6.53-5,10.37c1.17,2.48,3.78,4.17,7.82,5.39
				l-22.88,10.75c-4.54-2.88-7.87-6.11-9.83-10.29c-6.24-13.32,2.44-29.16,19.74-37.28c17.54-8.22,35.52-4.79,41.75,8.44
				c1.83,3.92,2.57,8.47,2.52,13.7l-23.22,10.89C543.11,228.96,543.31,226.15,542.12,223.6z"/>
		</g>
		<g>
			<path class="st1" d="M526.72,278.97c-8.86-2.58-13.77-6.48-15.16-12.44c-2.4-10.29,8.25-21.69,28.32-26.38
				c20.68-4.84,35.25,0.08,37.8,10.92c1.29,5.51-0.46,10.76-6.82,16.7l8.21-1.92l5.04,21.58l-61.82,14.45l-4.87-20.75L526.72,278.97
				z M538.18,269.41c0.83,3.49,4.79,5,10.17,3.72c5.39-1.25,8.41-4.38,7.59-7.88c-0.79-3.39-4.88-4.95-10.27-3.69
				C540.26,262.83,537.4,266.01,538.18,269.41z"/>
		</g>
		<g>
			<path class="st1" d="M561.69,307.38l-0.21-6.51l23.37-0.74l0.22,6.5l20.98-0.66l0.73,23.09l-20.99,0.66l0.21,6.61l-23.37,0.75
				l-0.22-6.61l-40.09,1.27l-0.72-23.1L561.69,307.38z"/>
		</g>
		<g>
			<path class="st1" d="M546.26,363.55c-0.38-0.05-0.75-0.11-0.99-0.16c-6.34-1.01-9.71,0.18-10.28,3.71
				c-0.32,2.05,1.04,3.89,4.1,5.42l-5.24,20.84c-12.59-5.52-19.16-16.23-17.05-29.55c2.57-16.01,19.55-25.05,37.93-22.11
				c18.38,2.94,31.71,16.72,29.13,32.83c-2.57,16.1-18.83,25.35-39.44,22.06c-1.12-0.18-2.21-0.36-3.32-0.64L546.26,363.55z
				 M558.24,376.26c5,0.52,7.48-0.71,8.03-3.97c0.44-2.88-1.62-5.12-6.37-6.36L558.24,376.26z"/>
		</g>
	</g>
	<g>
		<g>
			<g>
				<path class="st1" d="M74.4,545.84l-10.98-12.7l4.63-4c-5.95,0.96-10.44-0.32-13.67-4.05c-5.67-6.58-3.31-16.99,7.28-26.14
					c10.19-8.8,21.07-9.25,26.46-3.01c3.08,3.56,3.73,7.98,2.02,13.34c1.56-1.75,3.45-3.48,5.31-5.09l14.71-12.71l11.61,13.42
					L74.4,545.84z M72.77,512.2c-2.82,2.44-3.45,5.51-1.67,7.58c1.79,2.05,4.92,1.88,7.74-0.55c2.76-2.38,3.32-5.4,1.54-7.46
					C78.58,509.7,75.59,509.77,72.77,512.2z"/>
			</g>
			<g>
				<path class="st1" d="M105.94,550.09c-0.17,0.2-0.31,0.38-0.43,0.52c-2.66,3.25-2.96,5.68-0.8,7.46c1.26,1.03,2.89,1,4.89-0.15
					l12.12,11.55c-7.66,5.07-16.8,4.49-24.96-2.19c-9.78-8.03-10.38-21.57-2.6-31.04c7.76-9.46,21.1-11.56,30.96-3.48
					c9.84,8.08,10.8,21.29,2.09,31.9c-0.48,0.58-0.96,1.15-1.49,1.68L105.94,550.09z M118.13,548.33c1.93-2.69,1.91-4.64-0.09-6.27
					c-1.75-1.46-3.9-1.17-6.21,1.1L118.13,548.33z"/>
			</g>
			<g>
				<path class="st1" d="M329.32,103.13L312.81,100l1.17-6.02c-4.08,4.44-8.38,6.24-13.23,5.31c-8.53-1.62-13.14-11.27-10.53-25
					c2.53-13.24,10.78-20.34,18.87-18.79c4.64,0.88,7.88,3.94,9.87,9.2c0.13-2.33,0.55-4.87,1.01-7.29l3.65-19.1l17.42,3.33
					L329.32,103.13z M307.17,77.77c-0.7,3.65,0.71,6.45,3.39,6.96c2.68,0.51,5.02-1.57,5.72-5.22c0.69-3.58-0.76-6.3-3.42-6.8
					C310.18,72.2,307.86,74.12,307.17,77.77z"/>
			</g>
			<g>
				<path class="st1" d="M360.18,87.68c-0.08,0.23-0.17,0.47-0.21,0.62c-1.29,4.02-0.65,6.4,2.02,7.24
					c1.54,0.49,3.06-0.15,4.49-1.96l15.55,6.26c-5.25,7.52-13.98,10.4-24,7.2c-12.07-3.83-17.64-16.19-13.94-27.86
					c3.71-11.67,15.32-18.57,27.47-14.7c12.14,3.85,17.94,15.76,13.77,28.85c-0.22,0.71-0.45,1.42-0.75,2.11L360.18,87.68z
					 M370.86,81.52c0.78-3.21,0.03-5-2.41-5.79c-2.18-0.68-4.06,0.36-5.38,3.33L370.86,81.52z"/>
			</g>
			<g>
				<path class="st1" d="M171.35,541.1l16.01,8.29l-28.78,55.6l-16.03-8.3L171.35,541.1z"/>
			</g>
			<g>
				<path class="st1" d="M185.61,617.92c-11.97-4.36-16.97-16.9-12.79-28.41c4.19-11.5,16.08-17.93,28.05-13.58
					c11.95,4.37,16.96,16.91,12.79,28.41C209.46,615.85,197.52,622.25,185.61,617.92z M197.4,598.43c1.18-3.26,0.28-5.96-2.22-6.87
					c-2.4-0.88-4.9,0.59-6.1,3.87c-1.18,3.25-0.21,5.98,2.21,6.87C193.71,603.17,196.2,601.7,197.4,598.43z"/>
			</g>
			<g>
				<path class="st1" d="M218.89,610.23c3.42,3.91,6.36,6.02,8.6,6.49c1.88,0.38,3.07-0.31,3.36-1.77c0.41-1.94-1.48-2.33-4.28-3.66
					c-6.3-3.06-8.7-7.44-7.45-13.6c1.68-8.19,9.62-13.23,20.22-11.06c4.97,1,9.57,3.12,13.26,6.08l-6.84,11.42
					c-2.76-3.09-5.15-4.92-7.11-5.33c-1.66-0.33-2.85,0.35-3.1,1.57c-0.36,1.78,1.64,2.35,5.11,4.09c6.54,3.27,9.23,7.37,7.99,13.45
					c-1.77,8.66-9.89,14.19-21.15,11.89c-5.97-1.23-11.21-3.9-15.88-7.9L218.89,610.23z"/>
			</g>
			<g>
				<path class="st1" d="M279.59,572.41l26.76-2.42l0.81,8.83c4.06-7.76,9.34-11.79,16.65-12.47c11.93-1.08,20.46,6.81,21.75,21.22
					l3.9,42.81l-27.55,2.5l-2.92-32.21c-0.51-5.55-1.43-8.28-4.7-7.98c-3.25,0.3-4.69,3.23-4.18,8.79l2.92,32.2l-27.67,2.51
					L279.59,572.41z"/>
			</g>
			<g>
				<path class="st1" d="M360.98,554.44c-8.92,2.85-16.16-1.22-18.88-9.67c-2.7-8.45,0.79-15.69,9.82-18.58
					c9.02-2.91,15.95,1,18.66,9.46C373.31,544.09,369.91,551.59,360.98,554.44z M349.26,563.39l26.34-8.44l19.55,60.99l-26.33,8.44
					L349.26,563.39z"/>
			</g>
			<g>
				<path class="st1" d="M382.78,553.91l23.16-13.63l4.51,7.64c0.35-8.73,3.41-14.66,9.73-18.37c10.31-6.07,21.41-2.6,28.72,9.87
					l21.83,37.04l-23.84,14.03l-16.41-27.87c-2.83-4.81-4.83-6.86-7.65-5.2c-2.82,1.66-2.87,4.92-0.05,9.73l16.43,27.88l-23.94,14.1
					L382.78,553.91z M409.17,523.51c-1.08,0.64-2.47,1.17-3.99,1.46l-5.21,1.16c-1.72,0.43-2.92,0.83-3.59,1.24
					c-2.14,1.27-2.63,3.31-1.84,6.67l-5.65,3.32c-3.45-9.88-2.74-16.03,2.49-19.13c1.08-0.63,2.67-1.27,4.73-1.73l5.31-1.24
					c1.07-0.18,2.02-0.58,2.97-1.16c2.14-1.26,2.61-3.59,1.5-7.06l5.64-3.32C414.98,514.04,414.61,520.3,409.17,523.51z"/>
			</g>
			<g>
				<path class="st1" d="M511.99,540.58c-13.36,14.24-34.06,13.7-47.76,0.86c-13.7-12.84-15.55-33.48-2.2-47.72
					c13.37-14.24,34.08-13.7,47.77-0.86C523.47,505.71,525.27,526.42,511.99,540.58z M491.65,512.21
					c-3.89-3.64-8.24-4.01-11.02-1.04c-2.7,2.87-2.13,7.28,1.74,10.93c3.89,3.64,8.33,3.93,11.01,1.05
					C496.1,520.26,495.53,515.86,491.65,512.21z"/>
			</g>
			<g>
				<path class="st1" d="M522.52,485.41c7.31-3.17,11.77-6.48,13.49-9.53c1.43-2.57,1-4.63-1.01-5.74
					c-2.64-1.48-4.09,1.08-7.35,4.56c-7.41,7.76-14.91,9.23-23.32,4.52c-11.18-6.26-14.85-20.22-6.74-34.69
					c3.82-6.79,9.05-12.53,15.09-16.52l13.51,15.33c-5.8,2.55-9.61,5.21-11.11,7.88c-1.28,2.25-0.83,4.33,0.84,5.27
					c2.43,1.36,4.2-1.28,8.33-5.56c7.85-8.02,15.08-10.04,23.39-5.4c11.82,6.64,16.1,21.08,7.51,36.43
					c-4.6,8.17-10.93,14.58-18.95,19.53L522.52,485.41z"/>
			</g>
		</g>
	</g>
	<g>
		<path class="st1" d="M154.92,269.21h-20.13v-22h20.13V269.21z M136.31,267.69h17.1v-18.97h-17.1V267.69z"/>
	</g>
	<g>
		<rect x="120.81" y="250.76" class="st1" width="1.52" height="17.69"/>
	</g>
	<g>
		<rect x="126.41" y="247.04" class="st1" width="1.52" height="29.8"/>
	</g>
	<g>
		<rect x="160.86" y="246.1" class="st1" width="1.52" height="30.73"/>
	</g>
	<g>
		<rect x="137.59" y="271.24" class="st1" width="1.52" height="8.38"/>
	</g>
	<g>
		<rect x="167.38" y="257.28" class="st1" width="1.52" height="13.04"/>
	</g>
	<g>
		<rect x="175.77" y="264.72" class="st1" width="1.52" height="14.9"/>
	</g>
	<g>
		<rect x="220.48" y="287.08" class="st1" width="1.52" height="8.38"/>
	</g>
	<g>
		<rect x="228.86" y="291.74" class="st1" width="1.52" height="10.24"/>
	</g>
	<g>
		<rect x="235.37" y="292.67" class="st1" width="1.52" height="13.04"/>
	</g>
	<g>
		<rect x="241.89" y="291.74" class="st1" width="1.52" height="13.97"/>
	</g>
	<g>
		<rect x="254.92" y="293.59" class="st1" width="1.52" height="13.97"/>
	</g>
	<g>
		<rect x="267.04" y="303.85" class="st1" width="1.52" height="12.1"/>
	</g>
	<g>
		<rect x="273.56" y="298.25" class="st1" width="1.52" height="13.04"/>
	</g>
	<g>
		<rect x="281.01" y="307.57" class="st1" width="1.52" height="10.24"/>
	</g>
	<g>
		<rect x="298.71" y="301.05" class="st1" width="1.52" height="11.17"/>
	</g>
	<g>
		<rect x="305.22" y="293.59" class="st1" width="1.52" height="20.49"/>
	</g>
	<g>
		<rect x="312.68" y="293.59" class="st1" width="1.52" height="20.49"/>
	</g>
	<g>
		<rect x="323.86" y="296.4" class="st1" width="1.52" height="17.69"/>
	</g>
	<g>
		<rect x="319.2" y="316.89" class="st1" width="1.52" height="9.31"/>
	</g>
	<g>
		<rect x="332.24" y="310.36" class="st1" width="1.52" height="11.18"/>
	</g>
	<g>
		<rect x="340.61" y="307.57" class="st1" width="1.52" height="11.18"/>
	</g>
	<g>
		<path class="st1" d="M20.78,316.15l-1.47-0.4c0.12-0.41,2.68-9.71,6.23-15.42c-1.63-1.25-5.5-5.09-3.01-12.06
			c0.74-2.07,2.01-3.51,3.78-4.28c3.6-1.58,7.88,0.23,8.07,0.3l-0.59,1.4c-0.04-0.01-3.9-1.62-6.88-0.31
			c-1.37,0.6-2.36,1.74-2.95,3.39c-2.65,7.45,2.76,10.56,2.99,10.69l0.72,0.4l-0.46,0.68C23.59,305.96,20.81,316.05,20.78,316.15z"
			/>
	</g>
	<g>
		<path class="st1" d="M172.34,319.21c0,0-1.42-11.87,0-16.77c0,0-8.38,0.7-5.6-10.48c2.79-11.18,11.87-4.89,11.87-4.89
			s-1.39-8.38,11.88-8.38c0,0,4.19,18.85,8.39,21.65c4.19,2.79-11.88-6.28-9.8,23.06"/>
	</g>
	<g>
		<path class="st1" d="M196.08,324.11c0,0,2.1-9.09,7.69-11.88v-28.64h10.48l0.7,27.94c0,0,6.29-4.89,16.07-1.39
			c0,0-9.78,13.97,0.7,26.54"/>
	</g>
	<g>
		<path class="st1" d="M237.98,336.68l-0.7-11.88c0,0-1.4-7.69,4.2-8.38c5.58-0.7,5.58-0.7,5.58-0.7s-2.78-6.98,2.1-6.98l0.7,16.76
			c0,0-2.8,0.24-3.49,2.57c-0.7,2.32,0.69,11.4,0.69,11.4"/>
	</g>
	<g>
		<path class="st1" d="M165.99,316.52l-1.42-10.73l0.11-0.22l4.12-7.58c0.09-0.53,0.47-3.22-1.19-5.29
			c-1.47-1.83-4.11-2.76-7.87-2.76c-2.84,0-4.9,0.85-6.15,2.52c-2.77,3.72-0.82,10.39-0.8,10.46l0.6,2.01l-1.75-1.16
			c-8.31-5.53-6.29-17.8-4.75-23.6c-13.08,15.33,0.89,30.85,1.52,31.53l-1.12,1.03c-0.17-0.19-17.07-18.9,0.74-35.99l1.24,0.81
			c-0.06,0.17-5.88,16.23,1.57,23.62c-0.42-2.53-0.65-6.71,1.51-9.63c1.55-2.08,4.03-3.14,7.37-3.14c4.25,0,7.3,1.12,9.06,3.34
			c2.3,2.89,1.5,6.51,1.46,6.66l-0.07,0.19l-4.06,7.47l1.36,10.24L165.99,316.52z"/>
	</g>
	<g>
		<path class="st1" d="M132.49,311.08c-3.95-11.07-4.07-19.01-0.34-23.59c3.94-4.86,10.63-4.01,10.94-3.96l-0.21,1.51
			c-0.05-0.01-6.17-0.77-9.57,3.42c-3.35,4.15-3.16,11.58,0.6,22.12L132.49,311.08z"/>
	</g>
	<g>
		<path class="st2" d="M59.77,300.73c-4.36-1.12-7.59-5.08-7.59-9.81c0-5.59,4.53-10.13,10.13-10.13c3.81,0,7.11,2.1,8.84,5.19"/>
	</g>
	<g>
		<path class="st2" d="M79.53,300.63l-8.48-7.97c0-3.86-3.13-6.99-7-6.99c-3.84,0-6.97,3.13-6.97,6.99c0,2.5,1.3,4.69,3.28,5.93
			c0,0,4.39,1.76,5.78,5.25"/>
		<path class="st1" d="M65.44,304.13c-1.26-3.16-5.32-4.82-5.36-4.83c-2.4-1.48-3.76-3.93-3.76-6.63c0-4.27,3.46-7.75,7.73-7.75
			c4.16,0,7.57,3.29,7.75,7.41l8.25,7.75l-1.04,1.11L70.29,293v-0.33c0-3.44-2.8-6.23-6.24-6.23c-3.42,0-6.21,2.8-6.21,6.23
			c0,2.17,1.09,4.14,2.92,5.28c0.07,0.01,4.59,1.86,6.09,5.62L65.44,304.13z"/>
	</g>
	<g>
		<path class="st1" d="M285.96,349.75l-1.85-9.12l-4.65-3.1l3.02-3.43c0.19-0.87,0.94-4.93-0.82-7.35
			c-0.84-1.15-2.11-1.76-3.89-1.87c-2.84-0.2-5,0.48-6.41,1.98c-2.43,2.61-1.9,6.89-1.89,6.93l0.34,2.6l-5.87-7.06l1.05-0.35
			c1.83-0.61,3.14-4.31,2.63-7.46c-0.31-1.88-1.48-5.04-5.88-5.04c-1.96,0-3.39,0.6-4.39,1.84c-2.56,3.2-1.18,9.52-1.17,9.59
			l0.21,0.92h-0.95c-4.07,0-6.33,7.08-6.85,9.8l-1.49-0.28c0.08-0.43,1.99-10,7.44-10.96c-0.32-1.99-0.81-6.98,1.61-10.01
			c1.28-1.6,3.16-2.41,5.57-2.41c3.97,0,6.73,2.36,7.37,6.32c0.56,3.49-0.66,7.19-2.7,8.65l1.52,1.83c0.12-1.73,0.63-4.13,2.33-5.94
			c1.73-1.84,4.27-2.64,7.61-2.46c2.22,0.14,3.91,0.98,5.01,2.5c2.39,3.29,1.08,8.56,1.02,8.78l-0.16,0.31l-2,2.28l3.73,2.48
			l1.97,9.74L285.96,349.75z"/>
	</g>
	<g>
		<path class="st1" d="M270.15,344.56l-1.46-0.42c1.31-4.59-0.66-9.94-0.68-10l1.42-0.53C269.52,333.85,271.6,339.5,270.15,344.56z"
			/>
	</g>
	<g>
		<path class="st1" d="M330.18,348.8l-1.25-3.74l-8.08-0.81l6.48-6.48c-0.09-1.13-0.55-4.97-2.85-6.71
			c-1.18-0.9-2.73-1.08-4.57-0.63c-6.2,1.57-4.36,11.6-4.34,11.7l0.05,0.29l-3.65,5.83l-1.28-0.8l3.33-5.34
			c-0.3-1.85-1.47-11.38,5.5-13.14c2.37-0.59,4.3-0.28,5.86,0.89c3.29,2.49,3.46,7.97,3.47,8.2l0.01,0.33l-4.7,4.67l5.88,0.59
			l1.55,4.68L330.18,348.8z"/>
	</g>
	<g>
		<g>
			<path class="st2" d="M253.41,270.82c-0.36,1.91-16.12,0.61-35.18-2.92c-19.08-3.53-34.25-7.95-33.9-9.87
				c0.35-1.92,16.11-0.63,35.18,2.91C238.59,264.47,253.76,268.88,253.41,270.82z"/>
		</g>
		<g>
			<path class="st2" d="M281.89,282.16c-0.07,0.87-7.93,0.95-17.54,0.19c-9.61-0.76-17.35-2.08-17.29-2.95
				c0.07-0.87,7.92-0.95,17.54-0.19C274.22,279.99,281.95,281.3,281.89,282.16z"/>
		</g>
		<g>
			<path class="st2" d="M299.59,271.72c-0.18,1.72-7.19,2.34-15.61,1.36c-8.43-0.96-15.11-3.15-14.91-4.88
				c0.2-1.72,7.21-2.34,15.62-1.36C293.12,267.81,299.79,270,299.59,271.72z"/>
		</g>
		<g>
			<path class="st2" d="M211.82,251.81c-0.3,0.91-4.42,0.36-9.16-1.24c-4.77-1.59-8.36-3.62-8.05-4.54c0.3-0.91,4.4-0.36,9.15,1.24
				C208.51,248.85,212.12,250.88,211.82,251.81z"/>
		</g>
	</g>
	<g>
		<polygon class="st2" points="28.43,363.23 23.54,363.23 20.75,346.46 28.43,346.46 		"/>
	</g>
	<g>
		<polygon class="st2" points="21.98,366 18.02,366.36 16.31,352.75 20.23,352.87 		"/>
	</g>
	<g>
		<path class="st2" d="M121.33,359.73c-10.48-0.7-23.04,0.7-23.04,0.7l-0.7-18.84c0,0,15.36,1.39,17.47,2.77
			c2.1,1.4,5.57,1.4,5.57,1.4L121.33,359.73z"/>
	</g>
	<g>
		<polygon class="st1" points="114.99,354.88 114.34,341.05 115.85,340.97 116.51,354.8 		"/>
	</g>
	<g>
		<line class="st3" x1="196.78" y1="359.03" x2="196.78" y2="365.31"/>
	</g>
	<g>
		<path class="st2" d="M159.05,362.52c-4.89-0.7-18.85,0-18.85,0v-9.77c0,0,9.78,0,19.55-0.71L159.05,362.52z"/>
	</g>
	<g>
		<path class="st2" d="M201.67,370.91c-4.19-2.1-14.68-2.1-14.68-2.1l0.71-7.69l9.07-4.19v5.58l5.59-1.4L201.67,370.91z"/>
	</g>
	<g>
		<g>
			<path class="st2" d="M160.36,430.73c-0.11,1.83-12.06,2.64-26.69,1.8c-14.65-0.83-26.42-2.98-26.33-4.82
				c0.12-1.83,12.06-2.63,26.71-1.8C148.67,426.74,160.46,428.9,160.36,430.73z"/>
		</g>
		<g>
			<path class="st2" d="M194.68,454.73c0,1.54-9.23,2.8-20.61,2.8c-11.39,0-20.6-1.26-20.6-2.8c0-1.55,9.21-2.8,20.6-2.8
				C185.45,451.93,194.68,453.18,194.68,454.73z"/>
		</g>
		<g>
			<path class="st2" d="M168.83,439.37c0,0,80.34-2.1,92.91-7.7c12.57-5.58,22.35-2.08,10.48,3.51
				c-11.87,5.58-57.28,12.56-81.03,9.77c-23.76-2.79-37.72,2.09-32.84-4.19C163.26,434.48,168.83,439.37,168.83,439.37z"/>
		</g>
		<g>
			<path class="st2" d="M96.89,374.4c0,0,11.18-4.2,37.03-2.09c25.83,2.09,32.82,4.89,39.81,6.98c6.98,2.09,23.05,7.69,32.12,6.29
				c9.09-1.41,9.09,4.18,1.41,4.18c-7.69,0-14.67,2.11-29.34-3.49c-14.66-5.58-29.33-11.17-53.08-9.77
				c-23.76,1.39-34.24,8.37-38.42,4.88C82.22,377.89,96.89,374.4,96.89,374.4z"/>
		</g>
		<g>
			<path class="st2" d="M139.5,418.4c0,0,34.23-16.76,39.81-4.19c5.59,12.57-19.56,3.5-19.56,3.5L139.5,418.4z"/>
		</g>
	</g>
	<g>
		<g>
			<path class="st2" d="M210.16,400.06c-16.69,0-52.41-3.28-58.41-4.78c-8.08-1.99-50.13,1.41-50.56,1.43
				c-0.77,0.21-1.41-0.49-1.47-1.25c-0.06-0.75,0.5-1.41,1.25-1.46c1.75-0.14,42.95-3.48,51.44-1.37c8.93,2.23,60.6,6.07,64.79,4.26
				c0.7-0.27,1.5,0.03,1.79,0.72c0.29,0.7-0.02,1.5-0.72,1.79C217.18,399.87,214.24,400.06,210.16,400.06z"/>
		</g>
		<g>
			<g>
				<path class="st2" d="M251.9,417.92c-3.56,0-6.04-0.22-6.34-0.25c-0.75-0.07-1.31-0.73-1.24-1.49c0.08-0.75,0.81-1.36,1.49-1.23
					c0.22-0.01,21.9,1.92,31.13-5.97c0.58-0.49,1.44-0.43,1.92,0.15c0.49,0.57,0.42,1.44-0.15,1.92
					C271.85,416.93,259.44,417.92,251.9,417.92z"/>
			</g>
			<g>
				<path class="st2" d="M328.11,415.03c-0.84,0-1.52-0.68-1.52-1.52c0-0.84,0.68-1.51,1.52-1.51c0.14,0,14.49-0.04,23.19-3.39
					c0.8-0.29,1.67,0.09,1.96,0.87c0.3,0.79-0.09,1.66-0.87,1.96C343.16,414.99,328.72,415.03,328.11,415.03z"/>
			</g>
			<g>
				<path class="st2" d="M378.4,385.69c-0.7,0-1.33-0.48-1.48-1.2c-0.17-0.82,0.35-1.62,1.16-1.8c0.15-0.03,15.42-3.46,19.91-12.45
					c0.37-0.75,1.28-1.07,2.03-0.68c0.75,0.37,1.06,1.29,0.68,2.04c-5.14,10.3-21.3,13.92-21.98,14.07
					C378.61,385.68,378.51,385.69,378.4,385.69z"/>
			</g>
		</g>
	</g>
	<g>
		<g>
			<rect x="228.92" y="365.31" class="st2" width="7.67" height="9.09"/>
		</g>
		<g>
			<rect x="268.04" y="372.31" class="st2" width="12.56" height="4.89"/>
		</g>
		<g>
			<rect x="301.56" y="374.4" class="st2" width="4.88" height="6.28"/>
		</g>
		<g>
			<rect x="312.04" y="374.4" class="st2" width="4.18" height="6.98"/>
		</g>
		<g>
			<polygon class="st2" points="340.03,376.04 331.63,376.16 331.69,380.35 340.09,380.22 			"/>
		</g>
		<g>
			<polygon class="st2" points="362.96,369.39 355.28,369.52 355.36,375.1 363.06,374.98 			"/>
		</g>
		<g>
			<polygon class="st2" points="378.99,367.04 371.3,367.16 371.38,371.35 379.06,371.23 			"/>
		</g>
		<g>
			<path class="st2" d="M355.35,347.84h7.69l0.69-13.26c0,0-2.78,0.7-3.49,2.79c-0.7,2.09-2.09,4.21-2.09,4.21l-2.09,2.77
				L355.35,347.84z"/>
		</g>
		<g>
			<polygon class="st2" points="370.72,345.75 379.1,345.75 378.4,335.28 376.31,332.49 372.11,333.88 372.11,335.98 370.72,339.47 
							"/>
		</g>
		<g>
			<rect x="384.69" y="330.39" class="st2" width="2.79" height="6.29"/>
		</g>
	</g>
	<g>
		<polygon class="st1" points="152.72,359.05 152.45,350.87 153.97,350.83 154.24,359.01 		"/>
	</g>
	<g>
		<polygon class="st1" points="198.12,367.85 196.61,367.69 197.63,358.35 199.14,358.51 		"/>
	</g>
	<g>
		<path class="st2" d="M89.2,298.25l-4.19-4.18l2.8-1.84c0.45-1.05,0.69-2.19,0.69-3.41c0-4.82-3.91-8.73-8.72-8.73
			c-4.84,0-8.73,3.91-8.73,8.73c0,2.59,1.12,4.91,2.89,6.5l-0.11,5.03"/>
	</g>
	<g>
		<path class="st2" d="M288.72,349.6c0,0-21.86-4.62-41.65-10.13c-25.13-6.98-113.15-37.02-164.84-38.41
			c-51.69-1.4-65.67,15.37-65.67,15.37s-4.18,3.49-4.18,6.28c0,2.79-1.41,11.42,5.58,5.36c6.99-6.06,39.12-22.82,99.9-10.25
			C178.61,330.39,235.64,346.79,288.72,349.6z"/>
		<path class="st1" d="M288.68,350.35c-38.86-2.05-79.62-11.34-122.76-21.16c-15.67-3.57-31.88-7.26-48.22-10.64
			c-14.58-3.02-28.57-4.54-41.59-4.54c-32.27,0-51.82,9.57-57.66,14.63c-2.77,2.4-4.73,2.85-5.91,1.62
			c-1.23-1.29-1.09-4.06-0.97-6.3c0.02-0.48,0.04-0.92,0.04-1.26c0-3.06,3.99-6.48,4.45-6.86c0.45-0.56,14.67-16.92,66.18-15.54
			c42.48,1.14,109.75,21.69,145.9,32.73c8.16,2.49,14.6,4.46,19.13,5.72c19.54,5.43,41.39,10.07,41.6,10.12L288.68,350.35z
			 M76.11,312.5c13.13,0,27.22,1.54,41.9,4.57c16.36,3.39,32.57,7.08,48.25,10.65c39.38,8.97,76.75,17.48,112.47,20.44
			c-8.24-1.88-20.44-4.79-31.86-7.97c-4.54-1.26-10.99-3.23-19.16-5.72c-36.08-11.02-103.22-31.52-145.5-32.66
			c-2.06-0.05-4.06-0.08-6-0.08c-45.76,0-58.95,15.03-59.07,15.18c-1.18,1-4,3.8-4,5.79c0,0.36-0.02,0.82-0.05,1.34
			c-0.08,1.62-0.22,4.35,0.56,5.17c0.13,0.14,0.28,0.21,0.5,0.21c0.41,0,1.39-0.25,3.32-1.92C23.88,321.92,43.46,312.5,76.11,312.5z
			"/>
	</g>
	<g>
		<path class="st2" d="M86.41,467.3l-10.49-0.7c0,0-42.6-71.25-32.12-150.18c0,0-3.85-11.52,4.9-20.26
			c7.69-7.69,14.66,2.8,14.66,2.8s-9.07,1.62-9.07,15.36C54.28,314.32,41.01,403.04,86.41,467.3z"/>
		<path class="st1" d="M87.95,468.16l-12.47-0.83l-0.2-0.34c-0.42-0.72-42.56-72.27-32.24-150.51c-0.44-1.53-3.24-12.5,5.13-20.86
			c2.01-2.01,4.18-3.04,6.45-3.04c5.36,0,9.21,5.71,9.38,5.95l0.63,0.95l-1.13,0.21c-0.34,0.07-8.45,1.73-8.45,14.61
			c-0.14,1-12.71,89.28,31.99,152.55L87.95,468.16z M76.38,465.88l8.51,0.57c-43.98-63.68-31.49-151.35-31.35-152.24
			c-0.01-11.17,6.02-14.67,8.56-15.65c-1.21-1.49-4.06-4.46-7.49-4.46c-1.84,0-3.65,0.87-5.37,2.6c-8.3,8.29-4.75,19.37-4.72,19.48
			l0.05,0.16l-0.02,0.17C34.59,391.53,73.23,460.43,76.38,465.88z"/>
	</g>
</g>
</svg>
